<?xml version="1.0" encoding="UTF-8"?>
<svg id="Ebene_2" data-name="Ebene 2" xmlns="http://www.w3.org/2000/svg" viewBox="0 0 91.92 30.64">
  <defs>
    <style>
      .cls-1 {
        fill: #f9eed3;
      }

      .cls-1, .cls-2, .cls-3, .cls-4, .cls-5, .cls-6, .cls-7, .cls-8, .cls-9, .cls-10, .cls-11, .cls-12, .cls-13, .cls-14, .cls-15, .cls-16 {
        stroke-width: 0px;
      }

      .cls-2 {
        fill: #363131;
      }

      .cls-3 {
        fill: #1d1a1d;
      }

      .cls-4 {
        fill: #231f21;
      }

      .cls-5 {
        fill: #2f2b2c;
      }

      .cls-6 {
        fill: #af956c;
      }

      .cls-7 {
        fill: #cd0c23;
      }

      .cls-8 {
        fill: #1f1b1a;
      }

      .cls-9 {
        fill: #292626;
      }

      .cls-10 {
        fill: #f2bd01;
      }

      .cls-11 {
        fill: #f9f8f8;
      }

      .cls-12 {
        fill: #fefefd;
      }

      .cls-13 {
        fill: #201c1e;
      }

      .cls-14 {
        fill: #221e1f;
      }

      .cls-15 {
        fill: #25201f;
      }

      .cls-16 {
        fill: #fad979;
      }
    </style>
  </defs>
  <g id="Ebene_1-2" data-name="Ebene 1">
    <g>
      <path class="cls-6" d="m0,29.99V.52c.17-.17.35-.34.52-.52h90.75c.42.28.53.67.53,1.16-.01,9.39,0,18.78,0,28.18,0,.11,0,.22,0,.32-.04.53-.32.82-.86.84-.28.01-.56,0-.84,0-29.57,0-59.15,0-88.72,0-.53,0-1.05.01-1.36-.52Zm1.46-1.03c.28.14.54.08.8.08,25.91,0,51.81,0,77.72,0,.75,0,.76,0,.76-.73,0-8.7,0-17.41,0-26.11,0-.73,0-.73-.75-.73-25.93,0-51.86,0-77.78,0-.23,0-.47-.05-.73.08v27.41Zm86.96-4.38h-4.63c-.05.44-.07.83.02,1.27h1.29c.14.33.07.54-.19.7-.29.18-.57.38-.86.57-.14.1-.3.18-.29.39,0,.41,0,.82,0,1.33.61-.41,1.1-.73,1.6-1.07.09.12.15.18.2.25.42.62,1.04.74,1.71.6.67-.14,1.04-.63,1.12-1.27.11-.91.05-1.83.03-2.79Zm-1.85-1.39c.1-.4,0-.78.07-1.13.08-.35-.33-.98.3-.99.65-.02.25.62.34.96.05.2,0,.43.01.64,0,.84.02.86.88.8.09,0,.17-.03.23-.13v-3.62h-4.59c-.13.84-.09,3.29.05,3.75.33.03.67.09,1.04-.07,0-.65,0-1.3,0-1.94,0-.19-.03-.4.26-.43.32-.04.42.11.42.41-.01.59,0,1.18,0,1.76.4.06.67.08.99,0Zm1.27-4.74c.45-.4.6-.89.67-1.4.14-1.03-.11-1.94-1-2.56-.83-.58-1.74-.59-2.63-.14-1.44.74-1.58,2.85-.65,4.06.08.11.17.19.31.19.64,0,1.28,0,1.96,0-.04-.78.05-1.46-.06-2.14-.33-.05-.6-.11-.84.03-.13.26.02.54-.14.77-.45.18-.59-.07-.65-.44-.08-.52.2-1.05.66-1.29.5-.25,1.11-.17,1.51.2.38.36.52.97.2,1.48-.26.42-.16.65.2.89.14.09.27.21.45.34Zm-2.94-5.3v-2.35c.58-.17.7.04.69.49-.02.53-.06,1.07.05,1.65.33-.01.64.1,1-.11v-2.01c.52-.19.67,0,.66.46-.01.62-.05,1.24.04,1.87.36.08.69.06,1.1,0,0-1.07-.02-2.12.01-3.17.02-.48-.18-.57-.61-.57-1.19.02-2.37,0-3.56,0-.17,0-.35-.05-.49.1v3.64c.37.06.69.06,1.11-.01Zm3-7.39c.67-.97.84-1.92.43-2.94-.24-.58-.73-.84-1.34-.83-.61,0-1.01.34-1.2.91-.13.39-.23.78-.35,1.17-.06.2-.1.47-.39.42-.27-.05-.25-.31-.26-.53-.01-.54.26-.98.52-1.45-.27-.26-.49-.55-.83-.7-.76.78-1.04,2.2-.62,3.13.26.58.69.9,1.36.9.63,0,1.02-.31,1.22-.87.14-.38.22-.78.35-1.17.06-.19.1-.48.4-.42.28.06.2.34.21.54.02.43-.27.76-.39,1.18.28.2.55.39.9.64Zm.48,1.16h-4.6c-.05.45-.06.85.01,1.28h4.62c.02-.44.06-.83-.03-1.28Z"/>
      <path class="cls-12" d="m0,29.99c.32.53.83.52,1.36.52,29.57,0,59.15,0,88.72,0,.28,0,.56.01.84,0,.54-.03.82-.31.86-.84,0-.11,0-.22,0-.32,0-9.39,0-18.78,0-28.18,0-.49-.11-.89-.53-1.16h.65v30.64c-30.64,0-61.28,0-91.92,0,0-.22,0-.43,0-.65Z"/>
      <path class="cls-11" d="m.52,0c-.17.17-.35.34-.52.52v-.52h.52Z"/>
      <path class="cls-14" d="m1.46,28.96V1.55c.26-.14.5-.08.73-.08,25.93,0,51.86,0,77.78,0,.75,0,.75,0,.75.73,0,8.7,0,17.41,0,26.11,0,.73,0,.73-.76.73-25.91,0-51.81,0-77.72,0-.25,0-.52.06-.8-.08Zm55.16-10.27V2.13H2.07v16.56h54.55Zm23.44.69H2.06v9h78v-9Zm-22.76-.69h22.75V2.14h-22.75v16.55Z"/>
      <path class="cls-11" d="m88.42,24.59c.03.95.08,1.87-.03,2.79-.08.64-.46,1.14-1.12,1.27-.67.14-1.29.01-1.71-.6-.05-.07-.1-.13-.2-.25-.5.33-.99.66-1.6,1.07,0-.51,0-.92,0-1.33,0-.21.15-.29.29-.39.29-.19.57-.39.86-.57.26-.16.33-.37.19-.7h-1.29c-.09-.44-.07-.84-.02-1.27h4.63Zm-2.17,1.31c-.05.36-.07.7,0,1.03.05.26.23.42.5.42.26,0,.45-.14.5-.41.06-.35.16-.7,0-1.06-.33-.03-.65-.05-.99.01Z"/>
      <path class="cls-11" d="m86.57,23.2c-.32.09-.6.07-.99,0,0-.57,0-1.17,0-1.76,0-.3-.1-.44-.42-.41-.29.03-.25.25-.26.43,0,.64,0,1.29,0,1.94-.37.16-.71.1-1.04.07-.14-.47-.18-2.91-.05-3.75h4.59v3.62c-.06.1-.14.12-.23.13-.86.06-.88.04-.88-.8,0-.22.04-.44-.01-.64-.09-.34.31-.98-.34-.96-.63.02-.23.65-.3.99-.08.35.03.73-.07,1.13Z"/>
      <path class="cls-11" d="m87.84,18.45c-.18-.13-.3-.25-.45-.34-.36-.23-.46-.46-.2-.89.31-.51.18-1.13-.2-1.48-.39-.37-1.01-.45-1.51-.2-.46.24-.74.77-.66,1.29.06.37.2.62.65.44.16-.23.01-.51.14-.77.24-.14.51-.08.84-.03.11.68.02,1.36.06,2.14-.68,0-1.32,0-1.96,0-.14,0-.23-.09-.31-.19-.92-1.21-.79-3.32.65-4.06.89-.46,1.8-.45,2.63.14.89.62,1.14,1.53,1,2.56-.07.51-.23,1-.67,1.4Z"/>
      <path class="cls-11" d="m84.9,13.15c-.42.07-.74.07-1.11.01v-3.64c.14-.15.32-.1.49-.1,1.19,0,2.37.01,3.56,0,.43,0,.62.09.61.57-.03,1.05-.01,2.1-.01,3.17-.41.06-.74.07-1.1,0-.09-.63-.05-1.25-.04-1.87,0-.46-.14-.65-.66-.46v2.01c-.36.21-.67.1-1,.11-.11-.58-.07-1.12-.05-1.65.02-.45-.11-.66-.69-.49v2.35Z"/>
      <path class="cls-11" d="m87.9,5.76c-.34-.25-.62-.44-.9-.64.12-.42.41-.75.39-1.18-.01-.21.06-.48-.21-.54-.29-.06-.33.23-.4.42-.13.39-.21.79-.35,1.17-.2.56-.59.86-1.22.87-.67,0-1.1-.32-1.36-.9-.42-.94-.14-2.35.62-3.13.34.15.56.43.83.7-.27.46-.53.91-.52,1.45,0,.22,0,.48.26.53.29.05.33-.22.39-.42.12-.39.22-.79.35-1.17.19-.57.59-.91,1.2-.91.61,0,1.1.25,1.34.83.42,1.02.24,1.97-.43,2.94Z"/>
      <path class="cls-11" d="m88.38,6.92c.09.45.05.84.03,1.28h-4.62c-.08-.43-.06-.83-.01-1.28h4.6Z"/>
      <path class="cls-16" d="m56.62,18.69H2.07V2.13h54.55v16.56Zm-3.6-13.75v9.19c-.21-.05-.25-.18-.33-.28-2.24-2.81-4.49-5.63-6.72-8.45-.3-.38-.6-.58-1.09-.42v10.77c.26-.03.48.06.74-.12V6.4c.21.04.26.17.33.26,2.31,2.9,4.62,5.8,6.92,8.71.24.31.47.48.88.33V4.94h-.74Zm-29.78,10.76c-.05-.14-.07-.22-.1-.3-1.56-3.37-3.13-6.74-4.69-10.12-.14-.3-.31-.4-.63-.41-.36,0-.47.19-.59.46-1.29,2.81-2.6,5.62-3.9,8.42-.3.64-.59,1.28-.89,1.93q.82.11,1.12-.53c.31-.66.62-1.32.9-2,.12-.29.28-.44.62-.43,1.84.01,3.67.01,5.51,0,.3,0,.47.1.59.38.29.67.6,1.33.9,2q.31.68,1.17.59Zm19.82-5.48c0-3.23-2.58-5.83-5.82-5.85-3.22-.01-5.87,2.56-5.88,5.72-.01,3.31,2.54,5.93,5.77,5.95,3.29.01,5.91-2.56,5.92-5.81ZM11.56,6.14c-.38-.43-.85-.69-1.34-.89-1.48-.6-2.98-.73-4.43.06-.97.53-1.44,1.38-1.41,2.5.03,1.07.59,1.77,1.51,2.22.56.28,1.16.46,1.77.59.69.15,1.4.28,2.06.56.98.41,1.34.91,1.32,1.84-.01.87-.51,1.53-1.42,1.88-.71.27-1.44.26-2.17.16-1.16-.16-2.09-.75-2.94-1.51-.23.17-.41.35-.55.62.35.35.74.65,1.18.88,1.68.91,3.41,1.21,5.2.36,1.04-.5,1.56-1.38,1.56-2.55,0-1.15-.62-1.88-1.62-2.35-.59-.27-1.21-.44-1.84-.58-.72-.15-1.43-.31-2.1-.64-.47-.24-.87-.55-1.04-1.09-.34-1.07.25-2.15,1.44-2.5,1.34-.39,2.6-.13,3.77.63.19.12.33.34.6.36.15-.18.3-.37.45-.56Zm13.08,9.57h7.07c.07-.25.07-.47-.01-.77h-6.31V4.94c-.3.01-.54-.09-.75.09v10.69Z"/>
      <path class="cls-1" d="m80.07,19.38v9H2.06v-9h78ZM3.87,23.93c-.01,1.69,1.17,2.91,2.85,2.94,1.65.03,3-1.28,2.99-2.91,0-1.6-1.26-2.84-2.89-2.86-1.68-.02-2.94,1.19-2.95,2.84Zm22.45.96c.77-.19,1.36-.09,1.7.65.09.19.27.34.36.53.33.71.88.82,1.63.62-.48-.68-.93-1.32-1.36-1.93.05-.18.18-.18.27-.23.78-.44,1.08-1.06.92-1.94-.13-.74-.68-1.29-1.52-1.35-.98-.07-1.97-.02-2.97-.02v5.52h.98v-1.85Zm5.48,1.83c.09-.65-.05-1.27.08-1.84.79-.22,1.33,0,1.67.71.07.15.22.27.29.43.33.73.9.88,1.68.7-.47-.67-.93-1.33-1.4-2,.09-.06.13-.11.19-.14.83-.43,1.17-1.04,1.06-1.87-.11-.79-.62-1.37-1.5-1.45-1-.09-2.01-.02-2.99-.02v5.5c.32.03.6.05.92-.02Zm22.1.01v-5.52c-.34,0-.66-.06-1.01.07v2.19h-2.61v-2.23h-.96v5.5h1v-2.26h2.61v2.25h.97Zm-33.63-5.5v5.49h4.11c0-.31.05-.58-.05-.88h-3.1c.05-.5-.08-.96.1-1.46h2.64c.04-.3.06-.55-.02-.88h-2.68v-1.41h3.08v-.86h-4.08Zm16.07,0v5.51h4.13c.06-.29.06-.56,0-.88h-3.14c.01-.51-.07-.97.07-1.47h2.66c.03-.32.08-.59-.05-.9h-2.66v-1.39h3.13c-.06-.34.05-.62-.08-.87h-4.04Zm-26.13,4.72c.96.82,2.02,1.07,3.18.77.71-.18,1.1-.71,1.15-1.39.05-.77-.21-1.21-.93-1.52-.27-.12-.57-.19-.86-.28-.33-.1-.67-.16-.97-.34-.21-.12-.32-.28-.3-.52.01-.26.14-.45.39-.54.27-.11.53-.14.82-.07.42.09.79.31,1.13.5.2-.1.26-.24.34-.36.08-.12.22-.21.18-.38-.86-.64-1.8-.84-2.68-.58-.74.21-1.19.77-1.22,1.5-.03.7.29,1.18,1.04,1.46.46.18.95.28,1.42.43.34.11.67.26.64.7-.04.46-.4.57-.77.65-.17.04-.34,0-.51-.02-.55-.07-.99-.38-1.44-.69-.2.24-.37.45-.59.71Zm38.28-3.95c-1.02-1.16-3.26-1.27-4.39.07-1.04,1.24-.86,3.19.35,4.17,1.34,1.07,3.44.64,4.02-.41-.19-.2-.38-.4-.57-.6-1.23.87-2.15.91-2.89.12-.68-.72-.72-1.89-.1-2.66.67-.83,1.56-.84,2.98-.02.19-.21.38-.43.6-.67Zm16.32-.74c-.37-.16-.5.02-.59.3-.28.81-.56,1.62-.85,2.43-.22.63-.45,1.25-.69,1.91-.22-.22-.24-.45-.31-.64-.41-1.22-.8-2.45-1.21-3.67-.05-.16-.04-.43-.32-.41-.26.02-.25.25-.31.43-.04.12-.08.25-.12.37-.44,1.32-.88,2.64-1.34,4.05-.09-.25-.16-.41-.21-.57-.46-1.29-.93-2.59-1.38-3.89-.11-.33-.25-.47-.62-.3.62,1.71,1.23,3.4,1.85,5.1.06.17.06.41.33.41.31,0,.28-.27.35-.46.39-1.16.78-2.32,1.18-3.47.07-.21.06-.48.33-.62.46,1.37.92,2.74,1.39,4.1.06.18.03.46.35.46.32,0,.29-.29.35-.46.62-1.67,1.21-3.35,1.83-5.06Zm8.42.81c.18,0,.21.1.26.16,1.11,1.4,2.23,2.79,3.34,4.19.16.2.28.47.65.27,0-.63,0-1.27,0-1.92,0-1.05,0-2.11,0-3.16,0-.32-.07-.5-.49-.35v4.63c-.18-.21-.27-.32-.36-.44-1.03-1.3-2.06-2.6-3.09-3.89-.18-.23-.35-.52-.75-.28,0,.85,0,1.71,0,2.57,0,.84,0,1.68,0,2.52,0,.32.05.52.45.29v-4.59Zm-56.52.07v4.61c.37,0,.66.06,1.02-.06v-4.57h1.71c0-.33.07-.61-.04-.87h-4.48c0,.31-.05.59.05.9h1.74Zm49.54-.55c.38,0,.7,0,1.02,0,.73,0,1.47,0,2.2,0,.15,0,.32.01.3-.22-.01-.19-.15-.18-.28-.18-1.22,0-2.44,0-3.67,0v5.57c1.25,0,2.46,0,3.66,0,.14,0,.32.04.33-.19,0-.22-.16-.22-.31-.22-.15,0-.3,0-.45,0-.92,0-1.84,0-2.78,0v-2.19c.86,0,1.68.02,2.49-.01.22,0,.63.19.62-.2,0-.36-.42-.18-.64-.18-.83-.02-1.66,0-2.51,0v-2.17Zm-24.75-.37v5.51c.33.03.62.07.94-.03v-5.48h-.94Zm29.44,0v5.5c.28.07.45.05.45-.28,0-1.65,0-3.31,0-4.96,0-.33-.18-.33-.45-.27Zm-63.87-.46h.96c.04-.34.08-.64-.04-.96-.34.01-.65-.08-.95.07-.01.3-.06.57.04.89Zm-.62.01c.04-.31.07-.63-.03-1-.33.07-.65-.08-.97.12.05.29-.08.59.09.88h.9Z"/>
      <path class="cls-10" d="m57.31,18.68V2.14h22.75v16.55h-22.75Zm2.93-2.82h7.29c.01-.27.09-.51-.1-.78h-5.78c.16-.3.39-.44.57-.62.94-.86,1.9-1.69,2.82-2.57.78-.74,1.6-1.45,2.08-2.45.92-1.89-.13-4.02-2.17-4.39-1.89-.35-3.62.52-4.52,2.26.17.16.34.32.6.36.15-.19.29-.37.45-.55.46-.52.96-.99,1.64-1.22,1.41-.48,2.84.09,3.29,1.33.31.86.11,1.65-.37,2.39-.38.58-.84,1.09-1.36,1.56-1.37,1.25-2.74,2.49-4.13,3.73-.3.26-.5.52-.33.94Zm10.39-.76c.02-.25.19-.33.31-.44,1.08-.99,2.18-1.96,3.25-2.96.71-.66,1.41-1.34,1.85-2.22.85-1.7.14-3.67-1.61-4.26-1.78-.6-3.94-.11-5.05,2.13.2.11.34.31.61.32.49-.64.99-1.27,1.73-1.63,1.11-.54,2.49-.34,3.23.49.72.81.73,2.04.03,3.11-.27.42-.59.79-.95,1.14-1.46,1.44-3.02,2.76-4.54,4.14-.29.26-.51.52-.32.94h7.29c.04-.26.08-.49-.05-.77h-5.79Z"/>
      <path class="cls-6" d="m86.25,25.9c.34-.06.66-.04.99-.01.17.35.07.71,0,1.06-.05.27-.24.41-.5.41-.26,0-.44-.17-.5-.42-.07-.33-.05-.67,0-1.03Z"/>
      <path class="cls-13" d="m53.02,4.94h.74v10.76c-.4.15-.63-.02-.88-.33-2.3-2.91-4.61-5.81-6.92-8.71-.08-.09-.12-.23-.33-.26v9.24c-.26.17-.48.08-.74.12V4.98c.49-.17.78.03,1.09.42,2.23,2.83,4.47,5.64,6.72,8.45.08.09.12.23.33.28V4.94Z"/>
      <path class="cls-15" d="m23.24,15.7q-.86.09-1.17-.59c-.3-.67-.61-1.33-.9-2-.12-.28-.29-.38-.59-.38-1.84.01-3.67.01-5.51,0-.34,0-.5.14-.62.43-.28.67-.6,1.33-.9,2q-.29.64-1.12.53c.3-.65.6-1.29.89-1.93,1.3-2.81,2.61-5.61,3.9-8.42.13-.27.23-.47.59-.46.32,0,.49.1.63.41,1.55,3.38,3.12,6.75,4.69,10.12.03.08.06.16.1.3Zm-5.41-9.88c-.95,2.08-1.85,4.06-2.78,6.08h5.55c-.93-2.04-1.83-4.01-2.77-6.08Z"/>
      <path class="cls-4" d="m43.06,10.22c0,3.26-2.63,5.83-5.92,5.81-3.24-.01-5.79-2.64-5.77-5.95.01-3.16,2.66-5.73,5.88-5.72,3.24.01,5.82,2.62,5.82,5.85Zm-11.02-.05c0,2.84,2.34,5.19,5.17,5.19,2.8,0,5.15-2.33,5.17-5.13.02-2.8-2.36-5.19-5.18-5.19-2.8,0-5.16,2.34-5.16,5.13Z"/>
      <path class="cls-14" d="m11.56,6.14c-.16.2-.31.38-.45.56-.28-.01-.41-.23-.6-.36-1.17-.76-2.42-1.02-3.77-.63-1.19.34-1.78,1.42-1.44,2.5.17.54.57.85,1.04,1.09.66.33,1.38.49,2.1.64.63.14,1.26.3,1.84.58,1,.47,1.62,1.2,1.62,2.35,0,1.16-.52,2.05-1.56,2.55-1.79.85-3.52.55-5.2-.36-.43-.24-.83-.54-1.18-.88.13-.26.31-.44.55-.62.84.76,1.78,1.36,2.94,1.51.73.1,1.46.11,2.17-.16.91-.35,1.41-1,1.42-1.88.01-.93-.35-1.43-1.32-1.84-.66-.28-1.36-.41-2.06-.56-.61-.13-1.21-.31-1.77-.59-.92-.46-1.48-1.16-1.51-2.22-.03-1.12.44-1.97,1.41-2.5,1.45-.79,2.95-.67,4.43-.06.5.2.97.47,1.34.89Z"/>
      <path class="cls-3" d="m24.64,15.72V5.03c.21-.17.45-.07.75-.09v10h6.31c.09.3.08.52.01.77h-7.07Z"/>
      <path class="cls-4" d="m3.87,23.93c.01-1.65,1.27-2.86,2.95-2.84,1.63.02,2.88,1.27,2.89,2.86,0,1.63-1.34,2.94-2.99,2.91-1.68-.03-2.86-1.25-2.85-2.94Zm1.04.04c0,1.11.84,1.96,1.89,1.95,1.05-.02,1.83-.84,1.82-1.94,0-1.11-.85-1.98-1.89-1.97-1.02.02-1.83.89-1.82,1.96Z"/>
      <path class="cls-14" d="m26.32,24.89v1.85h-.98v-5.52c1,0,1.99-.05,2.97.02.84.06,1.39.62,1.52,1.35.16.88-.13,1.5-.92,1.94-.09.05-.22.05-.27.23.43.61.88,1.25,1.36,1.93-.75.2-1.3.09-1.63-.62-.09-.19-.27-.34-.36-.53-.34-.74-.93-.85-1.7-.65Zm.02-.98c.6,0,1.14.03,1.67,0,.51-.04.81-.39.83-.83.02-.49-.24-.85-.79-.93-.57-.08-1.14-.07-1.71,0v1.76Z"/>
      <path class="cls-3" d="m31.8,26.72c-.32.07-.6.04-.92.02v-5.5c.98,0,1.99-.07,2.99.02.88.08,1.39.67,1.5,1.45.12.83-.23,1.43-1.06,1.87-.05.03-.1.07-.19.14.47.67.93,1.33,1.4,2-.78.19-1.35.04-1.68-.7-.07-.15-.22-.27-.29-.43-.34-.71-.88-.93-1.67-.71-.13.57,0,1.19-.08,1.84Zm.07-2.82c.56.06,1.09.06,1.62,0,.54-.06.86-.41.87-.87.01-.49-.31-.86-.89-.91-.53-.04-1.06,0-1.62,0-.02.62-.05,1.19.02,1.78Z"/>
      <path class="cls-13" d="m53.9,26.73h-.97v-2.25h-2.61v2.26h-1v-5.5h.96v2.23h2.61v-2.19c.35-.13.67-.07,1.01-.07v5.52Z"/>
      <path class="cls-3" d="m20.27,21.23h4.08v.86h-3.08v1.41h2.68c.08.32.06.58.02.88h-2.64c-.17.5-.05.96-.1,1.46h3.1c.11.3.05.57.05.88h-4.11v-5.49Z"/>
      <path class="cls-3" d="m36.35,21.22h4.04c.13.26.02.53.08.87h-3.13v1.39h2.66c.13.31.08.58.05.9h-2.66c-.14.5-.06.96-.07,1.47h3.14c.07.32.06.59,0,.88h-4.13v-5.51Z"/>
      <path class="cls-4" d="m10.22,25.94c.22-.26.39-.48.59-.71.45.31.89.62,1.44.69.17.02.34.05.51.02.37-.08.74-.19.77-.65.03-.44-.3-.59-.64-.7-.47-.15-.96-.25-1.42-.43-.75-.29-1.06-.76-1.04-1.46.03-.73.48-1.28,1.22-1.5.88-.26,1.82-.06,2.68.58.04.17-.11.27-.18.38-.08.12-.14.27-.34.36-.34-.19-.7-.41-1.13-.5-.29-.06-.56-.03-.82.07-.25.1-.37.28-.39.54-.01.24.1.4.3.52.3.18.64.24.97.34.29.09.58.16.86.28.72.32.97.75.93,1.52-.04.68-.44,1.21-1.15,1.39-1.16.3-2.21.05-3.18-.77Z"/>
      <path class="cls-4" d="m48.5,22c-.21.24-.41.46-.6.67-1.41-.82-2.31-.8-2.98.02-.62.77-.58,1.95.1,2.66.74.79,1.66.75,2.89-.12.19.2.38.4.57.6-.58,1.05-2.68,1.48-4.02.41-1.22-.98-1.39-2.94-.35-4.17,1.13-1.34,3.37-1.23,4.39-.07Z"/>
      <path class="cls-9" d="m64.82,21.26c-.62,1.71-1.21,3.39-1.83,5.06-.06.17-.04.46-.35.46-.32,0-.29-.28-.35-.46-.47-1.36-.92-2.72-1.39-4.1-.27.14-.25.41-.33.62-.41,1.15-.79,2.32-1.18,3.47-.06.19-.04.46-.35.46-.27,0-.27-.24-.33-.41-.62-1.69-1.23-3.39-1.85-5.1.37-.17.51-.03.62.3.44,1.3.91,2.59,1.38,3.89.06.16.12.32.21.57.47-1.4.9-2.73,1.34-4.05.04-.12.08-.25.12-.37.06-.17.05-.41.31-.43.29-.02.27.25.32.41.41,1.22.8,2.45,1.21,3.67.07.2.08.42.31.64.24-.66.47-1.28.69-1.91.29-.81.57-1.62.85-2.43.1-.28.23-.46.59-.3Z"/>
      <path class="cls-2" d="m73.23,22.07v4.59c-.4.24-.45.03-.45-.29,0-.84,0-1.68,0-2.52,0-.86,0-1.72,0-2.57.4-.24.57.05.75.28,1.03,1.3,2.06,2.6,3.09,3.89.09.11.19.22.36.44v-4.63c.42-.16.5.03.49.35,0,1.05,0,2.11,0,3.16,0,.64,0,1.29,0,1.92-.37.2-.49-.07-.65-.27-1.11-1.4-2.23-2.79-3.34-4.19-.05-.06-.08-.15-.26-.16Z"/>
      <path class="cls-3" d="m16.71,22.14h-1.74c-.1-.31-.06-.59-.05-.9h4.48c.1.26.04.55.04.87h-1.71v4.57c-.36.11-.65.06-1.02.06v-4.61Z"/>
      <path class="cls-5" d="m66.25,21.59v2.17c.85,0,1.68-.01,2.51,0,.22,0,.63-.17.64.18,0,.39-.41.19-.62.2-.82.03-1.63.01-2.49.01v2.19c.93,0,1.86,0,2.78,0,.15,0,.3,0,.45,0,.15,0,.32,0,.31.22,0,.23-.19.19-.33.19-1.21,0-2.41,0-3.66,0v-5.57c1.23,0,2.45,0,3.67,0,.13,0,.27-.01.28.18.02.23-.15.22-.3.22-.73,0-1.47,0-2.2,0-.32,0-.64,0-1.02,0Z"/>
      <path class="cls-9" d="m41.5,21.23h.94v5.48c-.32.1-.61.06-.94.03v-5.51Z"/>
      <path class="cls-2" d="m70.94,21.23c.27-.07.45-.06.45.27,0,1.65,0,3.31,0,4.96,0,.32-.17.34-.45.28v-5.5Z"/>
      <path class="cls-5" d="m7.07,20.77c-.1-.32-.05-.59-.04-.89.3-.15.62-.06.95-.07.12.32.07.63.04.96h-.96Z"/>
      <path class="cls-5" d="m6.45,20.78h-.9c-.18-.29-.05-.59-.09-.88.32-.2.64-.05.97-.12.09.38.06.69.03,1Z"/>
      <path class="cls-8" d="m60.24,15.86c-.18-.42.03-.68.33-.94,1.38-1.23,2.76-2.48,4.13-3.73.51-.47.98-.97,1.36-1.56.48-.74.68-1.54.37-2.39-.45-1.24-1.88-1.81-3.29-1.33-.68.23-1.18.69-1.64,1.22-.16.18-.3.37-.45.55-.26-.04-.43-.2-.6-.36.9-1.74,2.63-2.61,4.52-2.26,2.03.37,3.08,2.5,2.17,4.39-.48.99-1.3,1.71-2.08,2.45-.93.87-1.88,1.71-2.82,2.57-.19.17-.41.31-.57.62h5.78c.18.28.11.51.1.78h-7.29Z"/>
      <path class="cls-8" d="m70.62,15.1h5.79c.13.27.09.5.05.77h-7.29c-.19-.42.03-.68.32-.94,1.51-1.38,3.08-2.71,4.54-4.14.36-.35.68-.73.95-1.14.7-1.08.69-2.3-.03-3.11-.73-.83-2.11-1.03-3.23-.49-.74.36-1.24.99-1.73,1.63-.27-.01-.41-.21-.61-.32,1.11-2.24,3.27-2.73,5.05-2.13,1.75.59,2.46,2.56,1.61,4.26-.44.89-1.14,1.56-1.85,2.22-1.07,1-2.17,1.97-3.25,2.96-.12.11-.29.18-.31.44Z"/>
      <path class="cls-16" d="m17.83,5.82c.94,2.07,1.84,4.04,2.77,6.08h-5.55c.92-2.03,1.83-4,2.78-6.08Z"/>
      <path class="cls-11" d="m32.05,10.17c0-2.79,2.36-5.13,5.16-5.13,2.83,0,5.21,2.38,5.18,5.19-.02,2.8-2.37,5.13-5.17,5.13-2.83,0-5.18-2.35-5.17-5.19Zm2.1,2.27c.71,1.25,2.43,1.88,4.04,1.5,1.52-.35,2.72-1.76,2.81-3.33-2.29.61-4.56,1.22-6.85,1.83Zm-.7-2.67c2.31-.62,4.56-1.22,6.83-1.82-.76-1.27-2.48-1.89-4.04-1.49-1.56.4-2.76,1.78-2.79,3.32Z"/>
      <path class="cls-1" d="m4.9,23.97c0-1.07.81-1.94,1.82-1.96,1.04-.02,1.88.86,1.89,1.97,0,1.1-.77,1.92-1.82,1.94-1.06.02-1.89-.84-1.89-1.95Z"/>
      <path class="cls-1" d="m26.34,23.91v-1.76c.57-.08,1.15-.09,1.71,0,.55.07.81.43.79.93-.02.44-.33.79-.83.83-.53.04-1.07,0-1.67,0Z"/>
      <path class="cls-1" d="m31.86,23.9c-.07-.59-.04-1.16-.02-1.78.56,0,1.09-.03,1.62,0,.57.05.9.42.89.91-.01.46-.33.81-.87.87-.53.06-1.07.06-1.62,0Z"/>
      <path class="cls-7" d="m34.15,12.45c2.29-.61,4.56-1.22,6.85-1.83-.09,1.57-1.29,2.98-2.81,3.33-1.62.38-3.33-.25-4.04-1.5Z"/>
      <path class="cls-7" d="m33.45,9.78c.03-1.54,1.23-2.92,2.79-3.32,1.56-.4,3.29.22,4.04,1.49-2.27.61-4.52,1.21-6.83,1.82Z"/>
    </g>
  </g>
</svg>