<?xml version="1.0" encoding="UTF-8"?>
<svg id="Ebene_2" data-name="Ebene 2" xmlns="http://www.w3.org/2000/svg" viewBox="0 0 86.67 23.64">
  <defs>
    <style>
      .cls-1 {
        stroke-width: 0px;
      }
    </style>
  </defs>
  <g id="Ebene_1-2" data-name="Ebene 1">
    <g>
      <path class="cls-1" d="m6.62,4.65c-.96,2.02-1.76,3.67-2.77,5.79C2.33,7.13,1.19,4.08,0,.9c2.16-.43,1.88,1.36,2.37,2.26.56,1.03.91,2.17,1.53,3.72.99-2.2,1.81-4,2.76-6.11.94,2.18,1.73,4,2.66,6.14.82-1.93,1.51-3.54,2.19-5.16.3-.72.63-1.39,1.82-.72-1.27,3.05-2.54,6.09-3.95,9.49-.97-2.06-1.78-3.79-2.76-5.88Z"/>
      <path class="cls-1" d="m61.5,16.94v6.01h-1.99c0-1.61.06-3.16-.02-4.69-.08-1.42-.27-1.49-2.2-1.19v5.86c-.63.05-1.34.1-2.18.17.05-1.91.81-3.81-.45-5.71,1.86-.99,3.72-1.99,6.05-1.11.39.15.95-.15,1.43-.27,2.13-.53,3.26.31,3.36,2.53.03.74-.02,1.49.02,2.23.04.72.14,1.43.21,2.21h-2c0-1.62.09-3.16-.03-4.68-.09-1.26-.82-1.85-2.21-1.35Z"/>
      <path class="cls-1" d="m41.39,10.02c.94-.11,1.88-.22,2.82-.34,1.54-.2,3.08-.4,4.91-.64.04-.84.08-1.77.13-2.96-.49.4-.81.66-1.43,1.16.38-1.12.62-1.86.94-2.8-.82.2-1.43.35-2.05.5-.08-.08-.16-.17-.25-.25.16-.15.31-.3.66-.63-1.53-.07-2.91-.13-4.29-.19,0-.12,0-.24,0-.36h4.47c-.52-.6-.77-.89-1.31-1.51,1.05.31,1.76.52,2.66.79-.14-.68-.26-1.28-.39-1.87.09-.08.17-.15.26-.23.32.56.64,1.11,1.03,1.78.43-.82.8-1.52,1.17-2.23.12.03.24.07.36.1-.23.74-.46,1.49-.72,2.35.53-.07,1.01-.14,1.48-.2.07.08.14.17.21.25-.4.28-.8.55-1.3.9.81.45,1.5.83,2.2,1.22-.05.11-.1.23-.15.34-.72-.24-1.44-.47-2.34-.77.09.61.17,1.13.25,1.64-.07.06-.14.12-.21.18-.22.06-.63.12-.64.2-.05.81-.03,1.62-.03,2.57,3.96.51,7.88.92,11.3,3.07-3.56-1.2-7.15-2.22-11.13-2.26v3.09c1.48.16,2.99.32,4.57.48-2.64,1.1-9.16-.4-13.47-3.06.1-.11.19-.21.29-.31Zm7.73-.11c-1.96-.26-3.82.2-5.73,1.12,1.85.59,3.71,1.18,5.73,1.83v-2.94Z"/>
      <path class="cls-1" d="m83.55,17.74c1.04,1.77,2.07,3.54,3.12,5.33-2.73.63-3.05-2.09-4.73-3.86.08,1.49.14,2.52.2,3.71-.55.03-1.25.07-1.99.11,0-1.61.03-3.14,0-4.66-.04-1.49-.15-2.97-.22-4.46-.16-.04-.32-.09-.48-.13.71-.46,1.43-.91,2.41-1.54v6.26c.75-.32,1.24-.53,1.73-.73l-.04-.03Z"/>
      <path class="cls-1" d="m13.02,18.5c2.07-1.34,4.14-2.68,6.22-4.02.09.1.18.2.27.3-.24.27-.47.53-.91,1.03.71.46,1.33.92,2.01,1.27.52.27,1.13.36,1.67.6,1.64.71,2.32,1.85,2.01,3.28-.28,1.27-1.44,2.21-2.98,2.19-1.45-.02-2.89-.24-4.44-.38-.1-1-.18-1.71-.25-2.42.1-.04.19-.09.29-.13.26.36.6.69.76,1.1.56,1.39,1.72,1.62,2.93,1.37.6-.13,1.43-.73,1.54-1.24.11-.54-.42-1.31-.86-1.82-.3-.35-.94-.39-1.4-.62-1.09-.56-2.16-1.16-3.54-1.91-.77.44-1.91,1.09-3.04,1.74-.09-.1-.19-.2-.28-.3Z"/>
      <path class="cls-1" d="m19.1,9.18c-2.01,1.82-4.4,1.85-5.77.08-1.28-1.66-.89-4.15.83-5.27,1.78-1.16,3.53-.66,4.85,1.56-1.38.9-2.77,1.81-4.27,2.8.87,1.09,1.76.91,2.76.48.47-.2,1.04-.16,1.56-.22.01.19.03.39.04.58Zm-4.87-1.91c1.05-.67,1.97-1.25,3.08-1.96-2.34-.84-2.96-.43-3.08,1.96Z"/>
      <path class="cls-1" d="m29.79,8.11c-.9.58-1.79,1.16-2.69,1.74-.09-.1-.18-.2-.27-.3,1.26-.94.95-2.27.7-3.46-.1-.48-.83-1.16-1.27-1.16-.44,0-1.14.7-1.24,1.19-.22,1-.12,2.06-.13,3.1-.01.85-.34,1.26-1.38.9-.04-.52-.13-1.09-.14-1.66-.02-1.54,0-3.08,0-4.57,1.1-.14,1.95-.22,2.79-.36,1.65-.28,2.71.44,3.02,2.13.13.71.24,1.43.36,2.15.09.1.18.2.27.31Z"/>
      <path class="cls-1" d="m35.91,21.81c-1.67,1.55-3.51,1.83-4.94.74-1.35-1.03-1.73-3.27-.81-4.86,1.34-2.32,4.13-2.37,5.88.12-.71.49-1.41.97-2.12,1.46-.72.5-1.43,1-2.23,1.57.62,1.11,1.5,1.29,2.49,1.2.58-.05,1.15-.13,1.73-.2v-.04Zm-1.7-3.64c-.27-1.17-.8-1.76-1.88-1.45-1.05.31-1.3,1.39-.75,3.24.91-.62,1.78-1.21,2.63-1.79Z"/>
      <path class="cls-1" d="m43.48,16.39c1.93-.83,2.72-.54,3.78,1.53-1.4.95-2.82,1.91-4.3,2.91,1.21,1.77,2.7,1.09,4.08.95l-.03-.04c-1.03,1.37-2.21,1.79-3.71,1.31-1.44-.46-2.25-1.68-2.25-3.41,0-1.84.69-2.75,2.48-3.29-.69,1.04-1.41,2.08-.67,3.61.96-.64,1.89-1.26,3.31-2.22-1.22-.61-1.95-.98-2.69-1.34Z"/>
      <path class="cls-1" d="m27.34,14.19c.17,1.22.31,2.18,1.63,2.08-.39.13-.79.27-1.46.49.63,1.85-1.22,4.28,1.5,5.72-2.02,1.24-3.19.73-3.33-1.59-.09-1.59-.02-3.19-.02-5.21.21-.18.8-.71,1.69-1.5Z"/>
      <path class="cls-1" d="m68.75,19.82c.58-.44,1.16-.89,1.72-1.32q-.03-2-2.06-2.11l.05.04c2.8-1.09,3.85-.44,3.95,2.44.05,1.28.14,2.57.22,4.07-.91.79-1.6-.26-2.42-.74l.03.04c.13-.85.25-1.71.42-2.85-.84.39-1.23.57-1.62.75-.1-.1-.2-.21-.29-.31Z"/>
      <path class="cls-1" d="m50.86,22.97h-1.96c.15-1.9.71-3.77-.41-5.72.58-.39,1.28-.86,2.37-1.59v7.31Z"/>
      <path class="cls-1" d="m76.9,16.81c-.17,2.01-.34,4.01-.52,6.13h-1.99v-5.9c.3-.2.94-.64,1.67-1.14.33.36.6.66.87.96,0,0-.03-.05-.03-.05Z"/>
      <path class="cls-1" d="m39.63,22.95h-1.9c-.08-1.91.72-3.81-.53-5.6.69-.4,1.37-.8,2.43-1.41v7.01Z"/>
      <path class="cls-1" d="m20.35,4c1.06-.46,1.58-.26,1.6.65.03,1.81,0,3.63,0,5.34-1.29.55-1.6.02-1.6-.88-.01-1.68,0-3.36,0-5.11Z"/>
      <path class="cls-1" d="m70.21,22.19c-.39,1.13-1.32,1.11-2.17.83-.39-.13-.84-.7-.9-1.13-.17-1.16.64-1.72,1.61-2.08.1.1.2.21.29.31-.71,1.66-.67,1.73,1.2,2.1l-.03-.04Z"/>
      <path class="cls-1" d="m29.51,7.81c2.07-1.34,4.15-2.69,6.22-4.03.09.1.18.2.27.3-.3.36-.6.72-.9,1.08-.1.09-.19.18-.29.28-1,.5-2.01.98-3,1.5-.69.37-1.36.79-2.04,1.18-.09-.1-.18-.2-.27-.31Z"/>
      <path class="cls-1" d="m40.34,14.13c-.81.46-1.31.97-1.71.91-.39-.07-.98-.74-.95-1.11.03-.37.71-.95,1.1-.96.41,0,.83.58,1.56,1.15Z"/>
      <path class="cls-1" d="m76.93,16.86c.44-.32.84-.75,1.33-.9.28-.09.88.21,1.02.49.15.3.05.94-.18,1.15-.22.2-.81.13-1.16,0-.39-.15-.69-.51-1.03-.78l.03.05Z"/>
      <path class="cls-1" d="m10.57,20.56c-1.39.96-2.78,1.91-4.47,3.08.98-1.55,1.37-1.84,4.21-3.36.09.09.18.19.26.28Z"/>
      <path class="cls-1" d="m22.51,1.48c-.59.46-1.04,1.02-1.28.94-.42-.14-.72-.67-1.06-1.04.34-.3.68-.81,1.04-.82.34-.02.71.48,1.3.92Z"/>
      <path class="cls-1" d="m36.94,6.89c1.48,1.04,2.96,2.08,4.44,3.13-.1.1-.19.21-.29.31-1.48-1.05-2.96-2.1-4.44-3.16.1-.1.19-.19.29-.28Z"/>
      <path class="cls-1" d="m37.1,2.88c1.41-.96,2.82-1.92,4.23-2.88.12.18.23.35.35.53-1.44.88-2.87,1.77-4.31,2.65-.09-.1-.18-.2-.27-.3Z"/>
      <path class="cls-1" d="m51.48,16.36c.65-.11,1.34-.39,1.93-.25.24.06.27,1.02.39,1.57-.17.1-.34.21-.51.31-.62-.39-1.24-.78-1.86-1.17.02-.16.03-.31.05-.47Z"/>
      <path class="cls-1" d="m22.2,13.01c.18.95,2.14,1.11,1.22,2.48-.85-.54-1.7-1.07-2.55-1.6-.09-.1-.18-.19-.27-.29.45-.29.89-.58,1.34-.87.09.1.17.19.26.29Z"/>
      <path class="cls-1" d="m68.41,16.39c.11.5.38,1.04.26,1.48-.09.34-.66.55-1.02.82-.17-.41-.59-.96-.45-1.21.24-.45.82-.71,1.26-1.05l-.05-.04Z"/>
      <path class="cls-1" d="m25.73,10.73c-1.18.76-2.35,1.52-3.53,2.28-.09-.1-.17-.19-.26-.29,1.18-.76,2.35-1.51,3.53-2.27.09.09.17.18.26.27Z"/>
      <path class="cls-1" d="m84.05,17.26c.06-.34.12-.68.22-1.23.54-.04,1.23-.08,1.92-.13.04.15.09.29.13.44-.77.29-1.53.58-2.3.87l.03.04Z"/>
      <path class="cls-1" d="m27.09,9.85c-.46.29-.91.58-1.37.87-.09-.09-.17-.18-.26-.27.45-.3.9-.6,1.35-.91.09.1.18.2.27.3Z"/>
      <path class="cls-1" d="m11.66,19.37c.45-.29.9-.58,1.35-.87.09.1.18.2.28.3-.45.29-.91.58-1.36.87-.09-.1-.18-.2-.27-.3Z"/>
      <path class="cls-1" d="m10.31,20.28c.45-.3.9-.6,1.35-.91.09.1.18.2.27.3-.45.29-.91.59-1.36.88-.09-.09-.17-.19-.26-.28Z"/>
      <path class="cls-1" d="m37.37,3.18c-.45.3-.91.59-1.36.89-.09-.1-.18-.2-.27-.3.45-.3.91-.59,1.36-.89.09.1.18.2.27.3Z"/>
      <path class="cls-1" d="m19.23,14.48c.46-.3.91-.59,1.37-.89.09.1.18.2.27.29-.45.3-.91.59-1.36.89-.09-.1-.18-.2-.27-.3Z"/>
      <path class="cls-1" d="m51.85,2.48c.33-.12.65-.25.98-.37.04.11.08.22.12.34-.3.1-.59.19-.89.29-.07-.08-.14-.17-.21-.25Z"/>
      <path class="cls-1" d="m48.26.91c-.07-.24-.13-.48-.2-.72.15.17.3.33.46.5-.09.07-.17.15-.26.23Z"/>
      <path class="cls-1" d="m50.71,6.06c.13.26.26.52.39.78l-.31.15c-.1-.25-.2-.5-.29-.75.07-.06.14-.12.21-.18Z"/>
      <path class="cls-1" d="m36.65,7.18c-.15-.14-.31-.28-.46-.42.09-.09.18-.19.28-.28.16.14.32.28.48.42-.1.09-.19.19-.29.28Z"/>
      <path class="cls-1" d="m36,6.04c.15.14.31.29.46.43-.09.09-.19.19-.28.28-.15-.14-.31-.28-.46-.43.09-.1.18-.19.28-.28Z"/>
      <path class="cls-1" d="m35.55,5.6c.15.15.3.29.45.44-.09.09-.19.19-.28.28-.15-.15-.3-.3-.45-.45.09-.09.18-.19.27-.28Z"/>
      <path class="cls-1" d="m35.11,5.15c.15.15.29.3.44.45-.09.09-.18.18-.27.28-.15-.15-.3-.3-.46-.46.1-.09.19-.18.29-.28Z"/>
      <path class="cls-1" d="m84.02,17.21c-.16.18-.31.35-.47.53,0,0,.04.03.04.03.16-.17.31-.35.47-.52,0,0-.03-.04-.03-.04Z"/>
      <path class="cls-1" d="m46.71,4.94c-.16.06-.31.11-.47.17.08-.14.15-.28.23-.42.08.08.16.17.25.25Z"/>
      <polygon class="cls-1" points="35.91 21.84 35.95 21.73 35.91 21.81 35.91 21.84"/>
      <polygon class="cls-1" points="47.04 21.78 47.12 21.71 47 21.74 47.04 21.78"/>
    </g>
  </g>
</svg>