<svg xmlns="http://www.w3.org/2000/svg" width="447.371" height="131.625" viewBox="0 0 447.371 131.625">
  <g id="Logo_Silberberg" transform="translate(0 1.996)">
    <g id="Gruppe_1" data-name="Gruppe 1" transform="translate(-57.192 -41.032)">
      <path id="Pfad_1" data-name="Pfad 1" d="M72.829,147.593a35.884,35.884,0,0,1-8.367-2.861,35.394,35.394,0,0,1-7.27-4.767l6.055-7.437a27.387,27.387,0,0,0,8.724,5.148,30.306,30.306,0,0,0,10.345,1.717q7.533,0,11.68-2.789a8.963,8.963,0,0,0,4.148-7.89v-.048a8.346,8.346,0,0,0-1.883-5.745,11.249,11.249,0,0,0-4.863-3.146,54.1,54.1,0,0,0-7.7-1.883.973.973,0,0,0-.31-.048.968.968,0,0,1-.31-.048l-.715-.143a74.271,74.271,0,0,1-11.323-2.693,15.945,15.945,0,0,1-7.461-5.483q-3.1-3.979-3.1-11.322v-.048a20.116,20.116,0,0,1,2.884-10.989,18.115,18.115,0,0,1,8.414-6.936,33.507,33.507,0,0,1,13.3-2.384,33.167,33.167,0,0,1,7.318.811,36.312,36.312,0,0,1,7.1,2.407,40.876,40.876,0,0,1,6.888,4.029l-5.53,7.723a32.315,32.315,0,0,0-7.89-4.362,22.6,22.6,0,0,0-7.89-1.455q-7.1,0-11.036,2.837a9.32,9.32,0,0,0-3.933,8.033v.048a7.651,7.651,0,0,0,2.026,5.625,12.269,12.269,0,0,0,5.053,3.028,76.29,76.29,0,0,0,8.415,2.026,3.51,3.51,0,0,0,.357.071,3.542,3.542,0,0,1,.358.072c.159.032.334.063.524.1s.366.064.525.095a57.617,57.617,0,0,1,10.512,3.052,16.4,16.4,0,0,1,7.055,5.7q2.837,3.933,2.837,10.75v.1a19.1,19.1,0,0,1-3,10.846,18.715,18.715,0,0,1-8.7,6.865,35.912,35.912,0,0,1-13.754,2.36A45.556,45.556,0,0,1,72.829,147.593Z"/>
      <path id="Pfad_2" data-name="Pfad 2" d="M120.646,78.513h9.725v9.726h-9.725Zm0,19.833h9.725v49.485h-9.725Z"/>
      <path id="Pfad_3" data-name="Pfad 3" d="M154.876,135.054a4.351,4.351,0,0,0,.786,2.789,2.685,2.685,0,0,0,2.217.978h4.577v9.248h-5.721q-5.53,0-8.557-3.432t-3.028-9.678V78.513h9.726Z"/>
      <path id="Pfad_4" data-name="Pfad 4" d="M173.421,78.513h9.725v69.318h-9.725Zm14.111,67.816a12.97,12.97,0,0,1-5.053-6.269l.667-10.345a11.839,11.839,0,0,0,1.145,5.435,7.937,7.937,0,0,0,3.313,3.432,10.794,10.794,0,0,0,5.268,1.192,9.533,9.533,0,0,0,7.461-2.932q2.646-2.931,2.646-8.271V117.844q0-5.435-2.646-8.438a9.42,9.42,0,0,0-7.461-3,11.166,11.166,0,0,0-5.268,1.145,7.686,7.686,0,0,0-3.313,3.361,11.454,11.454,0,0,0-1.145,5.315l-1-9.535a17.2,17.2,0,0,1,5.864-6.7,14.453,14.453,0,0,1,8.057-2.36,16.5,16.5,0,0,1,8.986,2.36,14.822,14.822,0,0,1,5.7,6.889A27.478,27.478,0,0,1,212.7,117.8v10.775a26.292,26.292,0,0,1-2,10.774,14.879,14.879,0,0,1-5.864,6.841,17.4,17.4,0,0,1-9.249,2.36A14.522,14.522,0,0,1,187.532,146.329Z"/>
      <path id="Pfad_5" data-name="Pfad 5" d="M235.063,145.972a17.207,17.207,0,0,1-7.413-7.557,26.155,26.155,0,0,1-2.551-12.037V120.8a29.156,29.156,0,0,1,2.456-12.538,17.549,17.549,0,0,1,7.127-7.914,22.007,22.007,0,0,1,11.251-2.718,17.865,17.865,0,0,1,10.583,3.1,19.263,19.263,0,0,1,6.7,8.963,38.345,38.345,0,0,1,2.312,14.064V127H232.155v-7.819h24.123q-.429-6.054-3.123-9.416a8.779,8.779,0,0,0-7.222-3.361q-5.53,0-8.558,3.624t-3.027,10.249v6.293q0,6.15,3.242,9.44t9.2,3.289a15.361,15.361,0,0,0,5.864-1.191,16.9,16.9,0,0,0,5.2-3.338l6.389,6.389a26.934,26.934,0,0,1-8.248,5.458,23.5,23.5,0,0,1-9.2,1.931A24.777,24.777,0,0,1,235.063,145.972Z"/>
      <path id="Pfad_6" data-name="Pfad 6" d="M278.875,98.346H288.6v49.485h-9.726Zm23.98,9.344a11.738,11.738,0,0,0-4.529-.811,9.7,9.7,0,0,0-7.175,2.551,9.568,9.568,0,0,0-2.55,7.079l-1-9.535a18.164,18.164,0,0,1,5.911-6.888,13.969,13.969,0,0,1,8.009-2.456,18.143,18.143,0,0,1,6.127.978,13.708,13.708,0,0,1,4.791,2.884l-6.341,8.581A8.136,8.136,0,0,0,302.855,107.69Z"/>
      <path id="Pfad_7" data-name="Pfad 7" d="M320.542,78.513h9.726v69.318h-9.726Zm14.112,67.816a12.966,12.966,0,0,1-5.054-6.269l.668-10.345a11.839,11.839,0,0,0,1.144,5.435,7.942,7.942,0,0,0,3.313,3.432,10.794,10.794,0,0,0,5.268,1.192,9.533,9.533,0,0,0,7.461-2.932q2.646-2.931,2.646-8.271V117.844q0-5.435-2.646-8.438a9.42,9.42,0,0,0-7.461-3,11.166,11.166,0,0,0-5.268,1.145,7.692,7.692,0,0,0-3.313,3.361,11.454,11.454,0,0,0-1.144,5.315l-1-9.535a17.181,17.181,0,0,1,5.864-6.7,14.449,14.449,0,0,1,8.056-2.36,16.507,16.507,0,0,1,8.987,2.36,14.814,14.814,0,0,1,5.7,6.889,27.477,27.477,0,0,1,1.955,10.917v10.775a26.292,26.292,0,0,1-2,10.774,14.873,14.873,0,0,1-5.864,6.841,17.4,17.4,0,0,1-9.248,2.36A14.52,14.52,0,0,1,334.654,146.329Z"/>
      <path id="Pfad_8" data-name="Pfad 8" d="M382.185,145.972a17.214,17.214,0,0,1-7.414-7.557,26.155,26.155,0,0,1-2.55-12.037V120.8a29.156,29.156,0,0,1,2.455-12.538,17.56,17.56,0,0,1,7.127-7.914,22.009,22.009,0,0,1,11.251-2.718,17.868,17.868,0,0,1,10.584,3.1,19.255,19.255,0,0,1,6.7,8.963,38.345,38.345,0,0,1,2.312,14.064V127H379.277v-7.819H403.4q-.429-6.054-3.122-9.416a8.781,8.781,0,0,0-7.223-3.361q-5.53,0-8.557,3.624t-3.027,10.249v6.293q0,6.15,3.241,9.44t9.2,3.289a15.354,15.354,0,0,0,5.864-1.191,16.912,16.912,0,0,0,5.2-3.338l6.388,6.389a26.91,26.91,0,0,1-8.248,5.458,23.5,23.5,0,0,1-9.2,1.931A24.773,24.773,0,0,1,382.185,145.972Z"/>
      <path id="Pfad_9" data-name="Pfad 9" d="M426,98.346h9.725v49.485H426Zm23.98,9.344a11.741,11.741,0,0,0-4.529-.811,9.7,9.7,0,0,0-7.175,2.551,9.569,9.569,0,0,0-2.551,7.079l-1-9.535a18.166,18.166,0,0,1,5.912-6.888,13.967,13.967,0,0,1,8.009-2.456,18.137,18.137,0,0,1,6.126.978,13.69,13.69,0,0,1,4.791,2.884l-6.34,8.581A8.143,8.143,0,0,0,449.977,107.69Z"/>
      <path id="Pfad_10" data-name="Pfad 10" d="M473.122,146.329a14.891,14.891,0,0,1-5.84-6.889,26.777,26.777,0,0,1-2-10.869V117.653a27.478,27.478,0,0,1,1.955-10.917,14.809,14.809,0,0,1,5.7-6.889,16.5,16.5,0,0,1,8.986-2.36,14.811,14.811,0,0,1,8.033,2.289,16.865,16.865,0,0,1,5.888,6.436l-1,10.107a11.737,11.737,0,0,0-1.144-5.388,7.808,7.808,0,0,0-3.314-3.408,10.976,10.976,0,0,0-5.268-1.168,9.419,9.419,0,0,0-7.461,3q-2.645,3-2.645,8.438v10.775q0,5.387,2.645,8.319a9.536,9.536,0,0,0,7.461,2.932,10.62,10.62,0,0,0,5.268-1.216,8.031,8.031,0,0,0,3.314-3.5,12.151,12.151,0,0,0,1.144-5.482l.667,10.44a14.085,14.085,0,0,1-4.839,6.15,13.544,13.544,0,0,1-8.271,2.479A17.373,17.373,0,0,1,473.122,146.329Zm.191,22.259a16.052,16.052,0,0,1-6.841-5.84l6.579-5.96a13.618,13.618,0,0,0,4.553,4.053,11.524,11.524,0,0,0,5.554,1.43q5.577,0,8.629-3.075c2.034-2.05,3.051-7.662,3.051-11.413V98.346h9.725v48.007c0,4.545-.834,11.15-2.5,14.392a16.927,16.927,0,0,1-7.27,7.39,24.25,24.25,0,0,1-11.489,2.526A23.2,23.2,0,0,1,473.313,168.588Z"/>
    </g>
    <path id="Pfad_11" data-name="Pfad 11" d="M233.844,83.376c74.85-51.766,149.7-60.765,259.3-.547" transform="translate(-57.192 -41.032)" fill="none" stroke="#686d6e" stroke-miterlimit="10" stroke-width="4"/>
    <g id="Gruppe_2" data-name="Gruppe 2" transform="translate(-57.192 -41.032)">
      <path id="Pfad_12" data-name="Pfad 12" d="M233.38,156.583h.927l2.948,11.587,2.846-11.587h1.5l-3.661,13.479h-1.372l-2.67-10.624-2.781,10.624h-1.372l-3.661-13.479h1.5l2.846,11.587Z"/>
      <path id="Pfad_13" data-name="Pfad 13" d="M245.559,156.583h1.335v13.479h-1.335Zm.918,0h7.74v1.242h-7.74Zm0,6.165H253.2v1.242h-6.721Zm0,6.071h7.74v1.243h-7.74Z"/>
      <path id="Pfad_14" data-name="Pfad 14" d="M260.436,170.062H259.1V156.583h1.335Z"/>
      <path id="Pfad_15" data-name="Pfad 15" d="M265.969,156.583h1.344l7.824,12.144-.547-.371V156.583h1.335v13.469h-1.363l-7.981-12.236.723.528v11.708h-1.335Z"/>
      <path id="Pfad_16" data-name="Pfad 16" d="M281.18,156.583h1.335v13.479H281.18Zm.649,9.372,7.388-9.372h1.724l-8.556,10.4Zm3.8-3.087.77-1.381,5.107,8.575h-1.594Z"/>
      <path id="Pfad_17" data-name="Pfad 17" d="M296.631,169.654a3.5,3.5,0,0,1-1.57-1.637,6.294,6.294,0,0,1-.525-2.739v-8.7h1.335v8.76a3.712,3.712,0,0,0,.844,2.655,4.123,4.123,0,0,0,5.107,0,3.687,3.687,0,0,0,.853-2.655v-8.76h1.335v8.7a6.31,6.31,0,0,1-.524,2.739,3.5,3.5,0,0,1-1.58,1.637,5.721,5.721,0,0,1-2.642.547A5.662,5.662,0,0,1,296.631,169.654Z"/>
      <path id="Pfad_18" data-name="Pfad 18" d="M308.894,156.583h1.335v13.479h-1.335Zm.946,12.236h7.712v1.243H309.84Z"/>
      <path id="Pfad_19" data-name="Pfad 19" d="M319.284,156.583H328.8v1.242h-9.511Zm4.088.547h1.335v12.932h-1.335Z"/>
      <path id="Pfad_20" data-name="Pfad 20" d="M334.1,169.654a3.5,3.5,0,0,1-1.57-1.637,6.294,6.294,0,0,1-.525-2.739v-8.7h1.335v8.76a3.712,3.712,0,0,0,.844,2.655,4.123,4.123,0,0,0,5.107,0,3.691,3.691,0,0,0,.853-2.655v-8.76h1.335v8.7a6.31,6.31,0,0,1-.524,2.739,3.5,3.5,0,0,1-1.58,1.637,5.721,5.721,0,0,1-2.642.547A5.662,5.662,0,0,1,334.1,169.654Z"/>
      <path id="Pfad_21" data-name="Pfad 21" d="M346.367,156.574H347.7v13.488h-1.335Zm.825,6.544h4.6a2.594,2.594,0,0,0,1.32-.329,2.227,2.227,0,0,0,.882-.931,3.073,3.073,0,0,0,.319-1.391,2.975,2.975,0,0,0-.311-1.39,2.215,2.215,0,0,0-.879-.931,2.615,2.615,0,0,0-1.331-.33h-4.6v-1.242h4.524a4.226,4.226,0,0,1,2.054.482,3.4,3.4,0,0,1,1.372,1.368,4.539,4.539,0,0,1,0,4.087,3.387,3.387,0,0,1-1.378,1.368,4.236,4.236,0,0,1-2.048.482h-4.524Zm4.32.825,1.233-.426,3.448,6.545H354.6Z"/>
      <path id="Pfad_22" data-name="Pfad 22" d="M369.882,170.015a6.814,6.814,0,0,1-3.04-1.483l.806-1.057a5.85,5.85,0,0,0,1.863,1.113,6.445,6.445,0,0,0,2.216.37,4.531,4.531,0,0,0,2.684-.686,2.24,2.24,0,0,0,.95-1.928v-.009a1.792,1.792,0,0,0-.412-1.233,2.543,2.543,0,0,0-1.068-.7,11.518,11.518,0,0,0-1.681-.427.366.366,0,0,0-.061-.013l-.069-.014-.269-.056a17.3,17.3,0,0,1-2.271-.56,3.3,3.3,0,0,1-1.452-.993,2.9,2.9,0,0,1-.6-1.942v-.009a3.914,3.914,0,0,1,.56-2.136,3.525,3.525,0,0,1,1.637-1.349,6.514,6.514,0,0,1,2.586-.464,6.409,6.409,0,0,1,1.413.158,7.024,7.024,0,0,1,1.383.468,8.328,8.328,0,0,1,1.348.783l-.788,1.048a7.327,7.327,0,0,0-1.7-.914,4.859,4.859,0,0,0-1.651-.3,4.131,4.131,0,0,0-2.558.695,2.322,2.322,0,0,0-.908,1.956v.01a1.587,1.587,0,0,0,.454,1.2,2.808,2.808,0,0,0,1.125.655,18.41,18.41,0,0,0,1.841.445l.08.018c.026.007.057.012.087.019a.684.684,0,0,1,.106.024l.107.022a13.022,13.022,0,0,1,2.114.593,3.33,3.33,0,0,1,1.4,1.043,3.01,3.01,0,0,1,.56,1.914v.019a3.709,3.709,0,0,1-.584,2.108,3.623,3.623,0,0,1-1.692,1.335,6.954,6.954,0,0,1-2.674.46A8.892,8.892,0,0,1,369.882,170.015Z"/>
      <path id="Pfad_23" data-name="Pfad 23" d="M381.1,156.583h1.335v13.479H381.1Zm.918,0h7.74v1.242h-7.74Zm0,6.165h6.721v1.242h-6.721Zm0,6.071h7.74v1.243h-7.74Z"/>
      <path id="Pfad_24" data-name="Pfad 24" d="M395.974,170.062h-1.335V156.583h1.335Z"/>
      <path id="Pfad_25" data-name="Pfad 25" d="M400.395,156.583h9.511v1.242h-9.511Zm4.088.547h1.335v12.932h-1.335Z"/>
      <path id="Pfad_26" data-name="Pfad 26" d="M423.3,170.062h-1.335V157.714l-2.475,1.548v-1.4l1.919-1.279H423.3Z"/>
      <path id="Pfad_27" data-name="Pfad 27" d="M430.017,169.765a3.118,3.118,0,0,1-1.4-1.266,3.9,3.9,0,0,1-.482-2v-.13a3.825,3.825,0,0,1,.486-1.928,3.459,3.459,0,0,1,1.368-1.335,3.141,3.141,0,0,1-1.164-1.224,3.566,3.566,0,0,1-.412-1.714v-.139a3.921,3.921,0,0,1,.449-1.938,2.951,2.951,0,0,1,1.3-1.228,5.229,5.229,0,0,1,4.116,0,2.956,2.956,0,0,1,1.3,1.228,3.932,3.932,0,0,1,.449,1.938v.139a3.577,3.577,0,0,1-.418,1.738,3.022,3.022,0,0,1-1.186,1.2,3.5,3.5,0,0,1,1.39,1.344,3.778,3.778,0,0,1,.492,1.919v.13a3.909,3.909,0,0,1-.482,2,3.121,3.121,0,0,1-1.4,1.266,5.8,5.8,0,0,1-4.413,0Zm3.677-1.081a2.113,2.113,0,0,0,.927-.879,2.877,2.877,0,0,0,.319-1.4v-.037a2.877,2.877,0,0,0-.319-1.4,2.147,2.147,0,0,0-.927-.884,3.684,3.684,0,0,0-2.94,0,2.136,2.136,0,0,0-.927.884,2.888,2.888,0,0,0-.319,1.4v.047a2.813,2.813,0,0,0,.319,1.381,2.1,2.1,0,0,0,.927.875,3.729,3.729,0,0,0,2.94,0Zm-.108-6.359a1.958,1.958,0,0,0,.862-.853,2.864,2.864,0,0,0,.3-1.357v-.13a2.5,2.5,0,0,0-.3-1.261,1.936,1.936,0,0,0-.862-.793,3.537,3.537,0,0,0-2.725,0,1.933,1.933,0,0,0-.862.8,2.544,2.544,0,0,0-.3,1.266v.139a2.834,2.834,0,0,0,.3,1.345,1.976,1.976,0,0,0,.862.847,3.314,3.314,0,0,0,2.725,0Z"/>
      <path id="Pfad_28" data-name="Pfad 28" d="M446.2,163.369l-.009.333a1.286,1.286,0,0,1-.765.621,3.84,3.84,0,0,1-1.321.2,3.446,3.446,0,0,1-1.844-.491,3.26,3.26,0,0,1-1.233-1.385,4.687,4.687,0,0,1-.436-2.073v-.009a5.184,5.184,0,0,1,.44-2.234,3.107,3.107,0,0,1,1.29-1.409,4.041,4.041,0,0,1,2.034-.482,3.977,3.977,0,0,1,2.03.491,3.15,3.15,0,0,1,1.283,1.428,5.252,5.252,0,0,1,.441,2.253v.009a7.064,7.064,0,0,1-.185,1.544,9.57,9.57,0,0,1-.529,1.626c-.037.081-.074.162-.111.246s-.077.165-.121.245l-2.873,5.776h-1.483Zm-.055-.825a3.013,3.013,0,0,0,.63-2.04v-.009a3.053,3.053,0,0,0-.634-2.058,2.552,2.552,0,0,0-3.578,0,3.056,3.056,0,0,0-.636,2.067v.01a2.965,2.965,0,0,0,.636,2.034,2.585,2.585,0,0,0,3.582,0Z"/>
      <path id="Pfad_29" data-name="Pfad 29" d="M453.509,169.19a3.884,3.884,0,0,1-.978-2.818v-6.127a3.862,3.862,0,0,1,.983-2.822,4.6,4.6,0,0,1,5.734-.006,3.88,3.88,0,0,1,.977,2.828v6.127a3.87,3.87,0,0,1-.982,2.823,4.579,4.579,0,0,1-5.734-.005Zm4.77-.9a2.748,2.748,0,0,0,.611-1.915v-6.127a2.74,2.74,0,0,0-.611-1.919,3.038,3.038,0,0,0-3.8,0,2.74,2.74,0,0,0-.612,1.919v6.127a2.748,2.748,0,0,0,.612,1.915,3.027,3.027,0,0,0,3.8,0Z"/>
    </g>
  </g>
</svg>
